<?xml version="1.0" encoding="UTF-8" standalone="no"?>
<!-- Created with Inkscape (http://www.inkscape.org/) -->

<svg
   width="420mm"
   height="297mm"
   viewBox="0 0 420 297"
   version="1.1"
   id="svg5"
   inkscape:version="1.2.2 (732a01da63, 2022-12-09)"
   sodipodi:docname="robot1.svg"
   inkscape:export-filename="robot1.pdf"
   inkscape:export-xdpi="96"
   inkscape:export-ydpi="96"
   xmlns:inkscape="http://www.inkscape.org/namespaces/inkscape"
   xmlns:sodipodi="http://sodipodi.sourceforge.net/DTD/sodipodi-0.dtd"
   xmlns="http://www.w3.org/2000/svg"
   xmlns:svg="http://www.w3.org/2000/svg">
  <sodipodi:namedview
     id="namedview7"
     pagecolor="#ffffff"
     bordercolor="#000000"
     borderopacity="0.25"
     inkscape:showpageshadow="2"
     inkscape:pageopacity="0.0"
     inkscape:pagecheckerboard="true"
     inkscape:deskcolor="#d1d1d1"
     inkscape:document-units="mm"
     showgrid="false"
     inkscape:zoom="2.5720352"
     inkscape:cx="639.76575"
     inkscape:cy="737.93704"
     inkscape:window-width="1920"
     inkscape:window-height="1009"
     inkscape:window-x="-8"
     inkscape:window-y="-8"
     inkscape:window-maximized="1"
     inkscape:current-layer="layer7"
     inkscape:pageshadow="2"
     inkscape:snap-bbox="true"
     inkscape:object-paths="true"
     inkscape:snap-intersection-paths="true"
     inkscape:snap-smooth-nodes="true"
     inkscape:snap-object-midpoints="true"
     inkscape:snap-center="true" />
  <defs
     id="defs2" />
  <g
     inkscape:groupmode="layer"
     id="layer2"
     inkscape:label="補助線"
     style="display:none">
    <rect
       style="vector-effect:non-scaling-stroke;fill:none;stroke:#00ff00;stroke-width:0.129556;stroke-opacity:1;-inkscape-stroke:hairline;paint-order:markers fill stroke"
       id="rect1238"
       width="50"
       height="50"
       x="0"
       y="0"
       ry="0" />
    <rect
       style="vector-effect:non-scaling-stroke;fill:none;stroke:#00ff00;stroke-width:0.264583;stroke-opacity:1;-inkscape-stroke:hairline;paint-order:markers fill stroke"
       id="rect1241"
       width="5"
       height="5"
       x="50"
       y="50"
       ry="7.1054274e-15" />
    <path
       style="vector-effect:non-scaling-stroke;fill:none;stroke:#00ff00;stroke-width:0.156028;stroke-opacity:1;-inkscape-stroke:hairline;paint-order:markers fill stroke"
       d="M 88.5,50 V 60"
       id="path532"
       sodipodi:nodetypes="cc" />
  </g>
  <g
     inkscape:groupmode="layer"
     id="layer6"
     inkscape:label="基盤"
     style="display:none">
    <g
       id="g1017">
      <path
         id="rect315"
         style="vector-effect:non-scaling-stroke;fill:none;stroke:#fd0000;stroke-width:0.27725;-inkscape-stroke:hairline;paint-order:markers fill stroke"
         d="m 139.44222,163.32523 h 61.80517 c 0.88496,0 1.59741,0.71244 1.59741,1.59741 v 52.80517 c 0,0.88497 -0.71245,1.59742 -1.59741,1.59742 h -61.80517 c -0.88497,0 -1.59742,-0.71245 -1.59742,-1.59742 v -52.80517 c 0,-0.88497 0.71245,-1.59741 1.59742,-1.59741 z" />
      <path
         id="rect317"
         style="vector-effect:non-scaling-stroke;fill:none;stroke:#fd0000;stroke-width:0.264583;-inkscape-stroke:hairline;paint-order:markers fill stroke"
         d="m 141.3448,166.82523 h 58 v 49 h -58 z" />
      <path
         id="path979"
         style="vector-effect:non-scaling-stroke;fill:none;stroke:#fd0000;stroke-width:0.255459;-inkscape-stroke:hairline;paint-order:markers fill stroke"
         d="m 142.7448,166.82523 a 1.4,1.4 0 0 1 -1.4,1.4 1.4,1.4 0 0 1 -1.4,-1.4 1.4,1.4 0 0 1 1.4,-1.4 1.4,1.4 0 0 1 1.4,1.4 z" />
      <path
         id="circle981"
         style="vector-effect:non-scaling-stroke;fill:none;stroke:#fd0000;stroke-width:0.255459;-inkscape-stroke:hairline;paint-order:markers fill stroke"
         d="m 200.7448,166.82523 a 1.4,1.4 0 0 1 -1.4,1.4 1.4,1.4 0 0 1 -1.4,-1.4 1.4,1.4 0 0 1 1.4,-1.4 1.4,1.4 0 0 1 1.4,1.4 z" />
      <path
         id="circle983"
         style="vector-effect:non-scaling-stroke;fill:none;stroke:#fd0000;stroke-width:0.255459;-inkscape-stroke:hairline;paint-order:markers fill stroke"
         d="m 142.7448,215.82523 a 1.4,1.4 0 0 1 -1.4,1.4 1.4,1.4 0 0 1 -1.4,-1.4 1.4,1.4 0 0 1 1.4,-1.4 1.4,1.4 0 0 1 1.4,1.4 z" />
      <path
         id="circle985"
         style="vector-effect:non-scaling-stroke;fill:none;stroke:#fd0000;stroke-width:0.255459;-inkscape-stroke:hairline;paint-order:markers fill stroke"
         d="m 200.7448,215.82523 a 1.4,1.4 0 0 1 -1.4,1.4 1.4,1.4 0 0 1 -1.4,-1.4 1.4,1.4 0 0 1 1.4,-1.4 1.4,1.4 0 0 1 1.4,1.4 z" />
      <path
         id="rect989"
         style="vector-effect:non-scaling-stroke;fill:none;stroke:#fd0000;stroke-width:0.184189;-inkscape-stroke:hairline;paint-order:markers fill stroke"
         d="m 137.8448,163.32523 h 6 v 6 h -6 z" />
      <path
         id="rect991"
         style="vector-effect:non-scaling-stroke;fill:none;stroke:#fd0000;stroke-width:0.184189;-inkscape-stroke:hairline;paint-order:markers fill stroke"
         d="m 196.8448,163.32523 h 6 v 6 h -6 z" />
      <path
         id="rect993"
         style="vector-effect:non-scaling-stroke;fill:none;stroke:#fd0000;stroke-width:0.184189;-inkscape-stroke:hairline;paint-order:markers fill stroke"
         d="m 196.8448,213.32523 h 6 v 6 h -6 z" />
      <path
         id="rect995"
         style="vector-effect:non-scaling-stroke;fill:none;stroke:#fd0000;stroke-width:0.184189;-inkscape-stroke:hairline;paint-order:markers fill stroke"
         d="m 137.8448,213.32523 h 6 v 6 h -6 z" />
    </g>
  </g>
  <g
     inkscape:groupmode="layer"
     id="layer7"
     inkscape:label="Layer 2">
    <path
       id="rect1125"
       style="vector-effect:non-scaling-stroke;fill:none;stroke:#fd0000;stroke-width:0.253251;-inkscape-stroke:hairline;paint-order:markers fill stroke"
       d="M 131.84467 163.32543 L 131.84467 169.32507 L 131.84467 213.32548 L 131.84467 225.32526 L 143.84497 225.32526 L 196.84483 225.32526 L 208.84462 225.32526 L 208.84462 213.32548 L 208.84462 169.32507 L 208.84462 163.32543 L 196.84483 163.32543 L 196.84483 169.32507 L 201.84504 169.32507 L 201.84504 213.32548 L 196.84483 213.32548 L 196.84483 218.32517 L 143.84497 218.32517 L 143.84497 213.32548 L 138.84476 213.32548 L 138.84476 169.32507 L 143.84497 169.32507 L 143.84497 163.32543 L 131.84467 163.32543 z " />
    <rect
       style="vector-effect:non-scaling-stroke;fill:none;stroke:#fd0000;stroke-width:0.25025;-inkscape-stroke:hairline;paint-order:markers fill stroke"
       id="rect1243"
       width="69.999954"
       height="49"
       x="135.34467"
       y="166.82542" />
    <circle
       style="vector-effect:non-scaling-stroke;fill:none;stroke:#fd0000;stroke-width:0.132291;-inkscape-stroke:hairline;paint-order:markers fill stroke"
       id="path1247"
       cx="135.34467"
       cy="166.82542"
       r="1.4" />
    <circle
       style="vector-effect:non-scaling-stroke;fill:none;stroke:#fd0000;stroke-width:0.132291;-inkscape-stroke:hairline;paint-order:markers fill stroke"
       id="circle1251"
       cx="205.29007"
       cy="166.82523"
       r="1.4" />
  </g>
  <g
     inkscape:label="Layer 1"
     inkscape:groupmode="layer"
     id="layer1"
     style="display:inline">
    <rect
       style="display:inline;vector-effect:non-scaling-stroke;fill:none;stroke:#0000ff;stroke-width:0.264583;stroke-dasharray:none;stroke-opacity:1;-inkscape-stroke:hairline;paint-order:markers fill stroke"
       id="rect1012"
       width="77"
       height="74"
       x="50"
       y="50"
       ry="5"
       inkscape:label="frame1" />
    <g
       id="g1694"
       inkscape:label="ツイストクローラー"
       transform="translate(22.543297,16.91888)"
       style="display:inline;vector-effect:non-scaling-stroke;stroke-width:0.264583;stroke-dasharray:none;-inkscape-stroke:hairline">
      <g
         inkscape:groupmode="layer"
         id="layer3"
         inkscape:label="ツイストクローラー 補助"
         style="display:none;vector-effect:non-scaling-stroke;stroke-width:0.264583;stroke-dasharray:none;-inkscape-stroke:hairline"
         transform="translate(-17.043297,-16.91888)">
        <path
           style="display:inline;vector-effect:non-scaling-stroke;fill:none;stroke:#00ff00;stroke-width:0.264583;stroke-dasharray:none;stroke-opacity:1;-inkscape-stroke:hairline;paint-order:markers fill stroke"
           d="m 62.25,60 h 41.5"
           id="path954" />
      </g>
      <g
         id="g284"
         inkscape:label="ネジ穴"
         style="vector-effect:non-scaling-stroke;stroke-width:0.264583;stroke-dasharray:none;-inkscape-stroke:hairline">
        <circle
           style="vector-effect:non-scaling-stroke;fill:none;stroke:#ff0000;stroke-width:0.264583;stroke-dasharray:none;stroke-opacity:1;-inkscape-stroke:hairline;paint-order:markers fill stroke"
           id="path234"
           cx="45.206699"
           cy="43.08112"
           r="2" />
        <circle
           style="vector-effect:non-scaling-stroke;fill:none;stroke:#ff0000;stroke-width:0.264583;stroke-dasharray:none;stroke-opacity:1;-inkscape-stroke:hairline;paint-order:markers fill stroke"
           id="circle790"
           cx="86.706703"
           cy="43.08112"
           r="2" />
        <circle
           style="vector-effect:non-scaling-stroke;fill:none;stroke:#ff0000;stroke-width:0.264583;stroke-dasharray:none;stroke-opacity:1;-inkscape-stroke:hairline;paint-order:markers fill stroke"
           id="circle958"
           cx="65.956703"
           cy="43.08112"
           r="2" />
      </g>
    </g>
    <g
       id="g2286"
       inkscape:label="Raspberry Pi Zero 2 W"
       transform="translate(22.624403,22.14458)"
       style="vector-effect:non-scaling-stroke;stroke-width:0.264583;stroke-dasharray:none;-inkscape-stroke:hairline">
      <g
         inkscape:groupmode="layer"
         id="layer4"
         inkscape:label="Raspberry Pi Zero 2 W 補助"
         style="display:none;vector-effect:non-scaling-stroke;stroke-width:0.264583;stroke-dasharray:none;-inkscape-stroke:hairline"
         transform="translate(-17.124403,-22.14458)">
        <rect
           style="display:inline;vector-effect:non-scaling-stroke;fill:none;stroke:#00ff00;stroke-width:0.264583;stroke-dasharray:none;stroke-opacity:1;-inkscape-stroke:hairline;paint-order:markers fill stroke"
           id="rect1748"
           width="58"
           height="23"
           x="54"
           y="75" />
      </g>
      <g
         id="g263"
         inkscape:label="frame"
         style="vector-effect:non-scaling-stroke;stroke-width:0.264583;stroke-dasharray:none;-inkscape-stroke:hairline">
        <path
           id="path494"
           style="vector-effect:non-scaling-stroke;fill:none;stroke:#ff0500;stroke-width:0.264583;stroke-dasharray:none;stroke-opacity:1;-inkscape-stroke:hairline;paint-order:markers fill stroke"
           d="m 91.875596,75.855417 -10e-7,3.000006 -51.999996,-2e-6 v -2.977615 c 0,-1.656852 -1.343146,-2.999998 -3.000001,-2.999999 l -3,-10e-7 V 55.877809 h 3 c 1.656855,0 3.000001,-1.343146 2.99996,-3.011194 l -4.1e-5,-2.988801 52.000078,10e-7 10e-7,2.977603 c 10e-7,1.656855 1.343147,3.000001 3,2.999999 l 2.999997,-1e-6 v 17.000001 l -2.999997,10e-7 c -1.656853,0 -2.999999,1.343146 -3,2.999999 z"
           sodipodi:nodetypes="cccssccscccsscccc" />
      </g>
      <g
         id="g402"
         inkscape:label="ネジ穴"
         transform="translate(-1.8750004e-8,0.02238894)"
         style="display:inline;vector-effect:non-scaling-stroke;stroke-width:0.264583;stroke-dasharray:none;-inkscape-stroke:hairline">
        <path
           id="path2014"
           style="vector-effect:non-scaling-stroke;fill:none;stroke:#ff0000;stroke-width:0.264583;stroke-dasharray:none;-inkscape-stroke:hairline;paint-order:markers fill stroke"
           d="m 38.375599,52.855423 a 1.5,1.5 0 0 1 -1.5,1.5 1.5,1.5 0 0 1 -1.5,-1.5 1.5,1.5 0 0 1 1.5,-1.5 1.5,1.5 0 0 1 1.5,1.5 z" />
        <path
           id="circle2276"
           style="vector-effect:non-scaling-stroke;fill:none;stroke:#ff0000;stroke-width:0.264583;stroke-dasharray:none;-inkscape-stroke:hairline;paint-order:markers fill stroke"
           d="m 96.375595,52.810638 a 1.5,1.5 0 0 1 -1.5,1.5 1.5,1.5 0 0 1 -1.5,-1.5 1.5,1.5 0 0 1 1.5,-1.5 1.5,1.5 0 0 1 1.5,1.5 z" />
        <path
           id="circle2278"
           style="vector-effect:non-scaling-stroke;fill:none;stroke:#ff0000;stroke-width:0.264583;stroke-dasharray:none;-inkscape-stroke:hairline;paint-order:markers fill stroke"
           d="m 96.375595,75.855423 a 1.5,1.5 0 0 1 -1.5,1.5 1.5,1.5 0 0 1 -1.5,-1.5 1.5,1.5 0 0 1 1.5,-1.5 1.5,1.5 0 0 1 1.5,1.5 z" />
        <path
           id="circle2280"
           style="vector-effect:non-scaling-stroke;fill:none;stroke:#ff0000;stroke-width:0.264583;stroke-dasharray:none;-inkscape-stroke:hairline;paint-order:markers fill stroke"
           inkscape:label="circle2280"
           d="m 38.375599,75.855423 a 1.5,1.5 0 0 1 -1.5,1.5 1.5,1.5 0 0 1 -1.5,-1.5 1.5,1.5 0 0 1 1.5,-1.5 1.5,1.5 0 0 1 1.5,1.5 z" />
      </g>
    </g>
    <g
       id="g2299"
       inkscape:label="Battery"
       transform="translate(22.624403,21.674301)"
       style="vector-effect:non-scaling-stroke;stroke-width:0.264583;stroke-dasharray:none;-inkscape-stroke:hairline">
      <g
         inkscape:groupmode="layer"
         id="layer5"
         inkscape:label="Battery 補助"
         style="display:none;vector-effect:non-scaling-stroke;stroke-width:0.264583;stroke-dasharray:none;-inkscape-stroke:hairline"
         transform="translate(-17.124403,-21.674301)">
        <path
           style="display:inline;vector-effect:non-scaling-stroke;fill:none;stroke:#00ff00;stroke-width:0.264583;stroke-dasharray:none;stroke-opacity:1;-inkscape-stroke:hairline;paint-order:markers fill stroke"
           d="m 55.5,113.5 h 55"
           id="path2291" />
        <path
           id="rect2288"
           style="display:inline;vector-effect:non-scaling-stroke;fill:none;stroke:#00ff00;stroke-width:0.264583;stroke-dasharray:none;-inkscape-stroke:hairline;paint-order:markers fill stroke"
           d="m 44.5,103 h 77 v 21 h -77 z" />
      </g>
      <g
         id="g1082"
         inkscape:label="ネジ穴"
         style="vector-effect:non-scaling-stroke;stroke-width:0.264583;stroke-dasharray:none;-inkscape-stroke:hairline">
        <path
           id="path2293"
           style="vector-effect:non-scaling-stroke;fill:none;stroke:#ff0000;stroke-width:0.264583;stroke-dasharray:none;-inkscape-stroke:hairline;paint-order:markers fill stroke"
           d="m 40.075599,91.825699 a 1.7,1.7 0 0 1 -1.7,1.7 1.7,1.7 0 0 1 -1.7,-1.7 1.7,1.7 0 0 1 1.7,-1.7 1.7,1.7 0 0 1 1.7,1.7 z" />
        <path
           id="circle2295"
           style="vector-effect:non-scaling-stroke;fill:none;stroke:#ff0000;stroke-width:0.264583;stroke-dasharray:none;-inkscape-stroke:hairline;paint-order:markers fill stroke"
           d="m 95.075595,91.825699 a 1.7,1.7 0 0 1 -1.7,1.7 1.7,1.7 0 0 1 -1.7,-1.7 1.7,1.7 0 0 1 1.7,-1.7 1.7,1.7 0 0 1 1.7,1.7 z" />
      </g>
    </g>
  </g>
</svg>
